<?xml version="1.0" encoding="UTF-8" standalone="no"?>
<!DOCTYPE svg PUBLIC "-//W3C//DTD SVG 1.1//EN"
 "http://www.w3.org/Graphics/SVG/1.1/DTD/svg11.dtd">
<!-- Generated by graphviz version 2.40.1 (20161225.0304)
 -->
<!-- Title: DFA Pages: 1 -->
<svg width="375pt" height="242pt"
 viewBox="0.00 0.00 374.98 242.49" xmlns="http://www.w3.org/2000/svg" xmlns:xlink="http://www.w3.org/1999/xlink">
<g id="graph0" class="graph" transform="scale(1 1) rotate(0) translate(4 238.4937)">
<title>DFA</title>
<polygon fill="#ffffff" stroke="transparent" points="-4,4 -4,-238.4937 370.9839,-238.4937 370.9839,4 -4,4"/>
<!-- cero -->
<g id="node1" class="node">
<title>cero</title>
<ellipse fill="none" stroke="#000000" cx="208.7434" cy="-185.7468" rx="25.9957" ry="25.9957"/>
<ellipse fill="none" stroke="#000000" cx="208.7434" cy="-185.7468" rx="29.9954" ry="29.9954"/>
<text text-anchor="middle" x="208.7434" y="-182.0468" font-family="Times,serif" font-size="14.00" fill="#000000">cero</text>
</g>
<!-- 0mod3 -->
<g id="node2" class="node">
<title>0mod3</title>
<ellipse fill="none" stroke="#000000" cx="327.237" cy="-161.7468" rx="35.9702" ry="35.9702"/>
<ellipse fill="none" stroke="#000000" cx="327.237" cy="-161.7468" rx="39.9952" ry="39.9952"/>
<text text-anchor="middle" x="327.237" y="-158.0468" font-family="Times,serif" font-size="14.00" fill="#000000">0mod3</text>
</g>
<!-- 0mod3&#45;&gt;0mod3 -->
<g id="edge4" class="edge">
<title>0mod3&#45;&gt;0mod3</title>
<path fill="none" stroke="#000000" d="M316.031,-200.0644C316.4704,-211.0346 320.2058,-219.4937 327.237,-219.4937 331.8513,-219.4937 335.0461,-215.8507 336.8215,-210.2457"/>
<polygon fill="#000000" stroke="#000000" points="340.3266,-210.4904 338.4431,-200.0644 333.4137,-209.3894 340.3266,-210.4904"/>
<text text-anchor="middle" x="327.237" y="-223.2937" font-family="Times,serif" font-size="14.00" fill="#000000">0</text>
</g>
<!-- 1mod3 -->
<g id="node5" class="node">
<title>1mod3</title>
<ellipse fill="none" stroke="#000000" cx="208.7434" cy="-101.7468" rx="35.9954" ry="35.9954"/>
<text text-anchor="middle" x="208.7434" y="-98.0468" font-family="Times,serif" font-size="14.00" fill="#000000">1mod3</text>
</g>
<!-- 0mod3&#45;&gt;1mod3 -->
<g id="edge5" class="edge">
<title>0mod3&#45;&gt;1mod3</title>
<path fill="none" stroke="#000000" d="M294.7489,-138.4637C286.7095,-133.2416 277.9657,-127.9962 269.4902,-123.7468 264.1587,-121.0738 258.4212,-118.5621 252.6765,-116.2599"/>
<polygon fill="#000000" stroke="#000000" points="253.6627,-112.8901 243.0721,-112.5921 251.1653,-119.4294 253.6627,-112.8901"/>
<text text-anchor="middle" x="265.9902" y="-127.5468" font-family="Times,serif" font-size="14.00" fill="#000000">1</text>
</g>
<!--   -->
<g id="node3" class="node">
<title> </title>
<text text-anchor="middle" x="27" y="-140.0468" font-family="Times,serif" font-size="14.00" fill="#000000"> </text>
</g>
<!-- q0 -->
<g id="node4" class="node">
<title>q0</title>
<ellipse fill="none" stroke="#000000" cx="110.4983" cy="-143.7468" rx="19.4965" ry="19.4965"/>
<text text-anchor="middle" x="110.4983" y="-140.0468" font-family="Times,serif" font-size="14.00" fill="#000000">q0</text>
</g>
<!--  &#45;&gt;q0 -->
<g id="edge1" class="edge">
<title> &#45;&gt;q0</title>
<path fill="none" stroke="#000000" d="M54.3405,-143.7468C62.7938,-143.7468 72.1455,-143.7468 80.7531,-143.7468"/>
<polygon fill="#000000" stroke="#000000" points="80.7732,-147.2469 90.7731,-143.7468 80.7731,-140.2469 80.7732,-147.2469"/>
</g>
<!-- q0&#45;&gt;cero -->
<g id="edge2" class="edge">
<title>q0&#45;&gt;cero</title>
<path fill="none" stroke="#000000" d="M128.5179,-151.4503C140.5145,-156.5788 156.7155,-163.5048 171.4179,-169.7901"/>
<polygon fill="#000000" stroke="#000000" points="170.233,-173.0899 180.8038,-173.8026 172.9847,-166.6534 170.233,-173.0899"/>
<text text-anchor="middle" x="151.4965" y="-166.5468" font-family="Times,serif" font-size="14.00" fill="#000000">0</text>
</g>
<!-- q0&#45;&gt;1mod3 -->
<g id="edge3" class="edge">
<title>q0&#45;&gt;1mod3</title>
<path fill="none" stroke="#000000" d="M128.5179,-136.0434C139.1271,-131.508 153.0243,-125.5669 166.2653,-119.9063"/>
<polygon fill="#000000" stroke="#000000" points="167.9153,-123.0074 175.7345,-115.8582 165.1636,-116.5709 167.9153,-123.0074"/>
<text text-anchor="middle" x="151.4965" y="-130.5468" font-family="Times,serif" font-size="14.00" fill="#000000">1</text>
</g>
<!-- 1mod3&#45;&gt;0mod3 -->
<g id="edge7" class="edge">
<title>1mod3&#45;&gt;0mod3</title>
<path fill="none" stroke="#000000" d="M237.4506,-123.5496C245.3154,-128.9481 254.0153,-134.4193 262.4902,-138.7468 267.8669,-141.4924 273.6483,-144.0512 279.4641,-146.39"/>
<polygon fill="#000000" stroke="#000000" points="278.6281,-149.8171 289.2188,-150.1121 281.1237,-143.277 278.6281,-149.8171"/>
<text text-anchor="middle" x="265.9902" y="-146.5468" font-family="Times,serif" font-size="14.00" fill="#000000">1</text>
</g>
<!-- 2mod3 -->
<g id="node6" class="node">
<title>2mod3</title>
<ellipse fill="none" stroke="#000000" cx="327.237" cy="-35.7468" rx="35.9954" ry="35.9954"/>
<text text-anchor="middle" x="327.237" y="-32.0468" font-family="Times,serif" font-size="14.00" fill="#000000">2mod3</text>
</g>
<!-- 1mod3&#45;&gt;2mod3 -->
<g id="edge6" class="edge">
<title>1mod3&#45;&gt;2mod3</title>
<path fill="none" stroke="#000000" d="M240.1864,-84.2333C254.3811,-76.327 271.3296,-66.8868 286.4839,-58.446"/>
<polygon fill="#000000" stroke="#000000" points="288.6139,-61.2659 295.6471,-53.3422 285.2077,-55.1506 288.6139,-61.2659"/>
<text text-anchor="middle" x="265.9902" y="-74.5468" font-family="Times,serif" font-size="14.00" fill="#000000">0</text>
</g>
<!-- 2mod3&#45;&gt;1mod3 -->
<g id="edge8" class="edge">
<title>2mod3&#45;&gt;1mod3</title>
<path fill="none" stroke="#000000" d="M291.7139,-39.757C281.8554,-41.8304 271.4155,-44.9757 262.4902,-49.7468 254.0815,-54.2418 246.0742,-60.437 238.93,-66.9871"/>
<polygon fill="#000000" stroke="#000000" points="236.2707,-64.691 231.5384,-74.1703 241.1491,-69.7111 236.2707,-64.691"/>
<text text-anchor="middle" x="265.9902" y="-53.5468" font-family="Times,serif" font-size="14.00" fill="#000000">0</text>
</g>
<!-- 2mod3&#45;&gt;2mod3 -->
<g id="edge9" class="edge">
<title>2mod3&#45;&gt;2mod3</title>
<path fill="none" stroke="#000000" d="M315.9898,-69.8618C316.1051,-80.8136 319.8542,-89.4937 327.237,-89.4937 332.082,-89.4937 335.362,-85.7555 337.0772,-80.0902"/>
<polygon fill="#000000" stroke="#000000" points="340.5887,-80.2455 338.4843,-69.8618 333.654,-79.2915 340.5887,-80.2455"/>
<text text-anchor="middle" x="327.237" y="-93.2937" font-family="Times,serif" font-size="14.00" fill="#000000">1</text>
</g>
</g>
</svg>
