<?xml version="1.0" encoding="UTF-8" standalone="no"?>
<!DOCTYPE svg PUBLIC "-//W3C//DTD SVG 1.1//EN"
 "http://www.w3.org/Graphics/SVG/1.1/DTD/svg11.dtd">
<!-- Generated by graphviz version 2.40.1 (20161225.0304)
 -->
<!-- Title: DFA Pages: 1 -->
<svg width="391pt" height="250pt"
 viewBox="0.00 0.00 390.98 250.49" xmlns="http://www.w3.org/2000/svg" xmlns:xlink="http://www.w3.org/1999/xlink">
<g id="graph0" class="graph" transform="scale(1 1) rotate(0) translate(4 246.4937)">
<title>DFA</title>
<polygon fill="#ffffff" stroke="transparent" points="-4,4 -4,-246.4937 386.9839,-246.4937 386.9839,4 -4,4"/>
<!--   -->
<g id="node1" class="node">
<title> </title>
<text text-anchor="middle" x="27" y="-149.0468" font-family="Times,serif" font-size="14.00" fill="#000000"> </text>
</g>
<!-- q0 -->
<g id="node4" class="node">
<title>q0</title>
<ellipse fill="none" stroke="#000000" cx="114.4983" cy="-152.7468" rx="19.4968" ry="19.4968"/>
<ellipse fill="none" stroke="#000000" cx="114.4983" cy="-152.7468" rx="23.4965" ry="23.4965"/>
<text text-anchor="middle" x="114.4983" y="-149.0468" font-family="Times,serif" font-size="14.00" fill="#000000">q0</text>
</g>
<!--  &#45;&gt;q0 -->
<g id="edge1" class="edge">
<title> &#45;&gt;q0</title>
<path fill="none" stroke="#000000" d="M54.2054,-152.7468C62.5511,-152.7468 71.8387,-152.7468 80.5751,-152.7468"/>
<polygon fill="#000000" stroke="#000000" points="80.8578,-156.2469 90.8578,-152.7468 80.8578,-149.2469 80.8578,-156.2469"/>
</g>
<!-- cero -->
<g id="node2" class="node">
<title>cero</title>
<ellipse fill="none" stroke="#000000" cx="220.7434" cy="-196.7468" rx="25.9957" ry="25.9957"/>
<ellipse fill="none" stroke="#000000" cx="220.7434" cy="-196.7468" rx="29.9954" ry="29.9954"/>
<text text-anchor="middle" x="220.7434" y="-193.0468" font-family="Times,serif" font-size="14.00" fill="#000000">cero</text>
</g>
<!-- 0mod3 -->
<g id="node3" class="node">
<title>0mod3</title>
<ellipse fill="none" stroke="#000000" cx="343.237" cy="-169.7468" rx="35.9702" ry="35.9702"/>
<ellipse fill="none" stroke="#000000" cx="343.237" cy="-169.7468" rx="39.9952" ry="39.9952"/>
<text text-anchor="middle" x="343.237" y="-166.0468" font-family="Times,serif" font-size="14.00" fill="#000000">0mod3</text>
</g>
<!-- 0mod3&#45;&gt;0mod3 -->
<g id="edge4" class="edge">
<title>0mod3&#45;&gt;0mod3</title>
<path fill="none" stroke="#000000" d="M332.031,-208.0644C332.4704,-219.0346 336.2058,-227.4937 343.237,-227.4937 347.8513,-227.4937 351.0461,-223.8507 352.8215,-218.2457"/>
<polygon fill="#000000" stroke="#000000" points="356.3266,-218.4904 354.4431,-208.0644 349.4137,-217.3894 356.3266,-218.4904"/>
<text text-anchor="middle" x="343.237" y="-231.2937" font-family="Times,serif" font-size="14.00" fill="#000000">0</text>
</g>
<!-- 1mod3 -->
<g id="node5" class="node">
<title>1mod3</title>
<ellipse fill="none" stroke="#000000" cx="220.7434" cy="-108.7468" rx="35.9702" ry="35.9702"/>
<ellipse fill="none" stroke="#000000" cx="220.7434" cy="-108.7468" rx="39.9952" ry="39.9952"/>
<text text-anchor="middle" x="220.7434" y="-105.0468" font-family="Times,serif" font-size="14.00" fill="#000000">1mod3</text>
</g>
<!-- 0mod3&#45;&gt;1mod3 -->
<g id="edge5" class="edge">
<title>0mod3&#45;&gt;1mod3</title>
<path fill="none" stroke="#000000" d="M310.7675,-146.4263C302.7275,-141.2056 293.9787,-135.9701 285.4902,-131.7468 280.1535,-129.0917 274.4333,-126.5967 268.6827,-124.3007"/>
<polygon fill="#000000" stroke="#000000" points="269.6294,-120.9161 259.0384,-120.6311 267.14,-127.4586 269.6294,-120.9161"/>
<text text-anchor="middle" x="281.9902" y="-135.5468" font-family="Times,serif" font-size="14.00" fill="#000000">1</text>
</g>
<!-- q0&#45;&gt;cero -->
<g id="edge2" class="edge">
<title>q0&#45;&gt;cero</title>
<path fill="none" stroke="#000000" d="M136.2549,-161.7571C149.8293,-167.3787 167.6606,-174.7633 183.442,-181.299"/>
<polygon fill="#000000" stroke="#000000" points="182.3687,-184.6427 192.9469,-185.2353 185.0471,-178.1753 182.3687,-184.6427"/>
<text text-anchor="middle" x="159.4965" y="-175.5468" font-family="Times,serif" font-size="14.00" fill="#000000">0</text>
</g>
<!-- q0&#45;&gt;1mod3 -->
<g id="edge3" class="edge">
<title>q0&#45;&gt;1mod3</title>
<path fill="none" stroke="#000000" d="M136.2549,-143.7366C147.2956,-139.1643 161.1524,-133.4257 174.4318,-127.9261"/>
<polygon fill="#000000" stroke="#000000" points="176.051,-131.0439 183.9508,-123.984 173.3726,-124.5766 176.051,-131.0439"/>
<text text-anchor="middle" x="159.4965" y="-137.5468" font-family="Times,serif" font-size="14.00" fill="#000000">1</text>
</g>
<!-- 1mod3&#45;&gt;0mod3 -->
<g id="edge7" class="edge">
<title>1mod3&#45;&gt;0mod3</title>
<path fill="none" stroke="#000000" d="M253.2129,-132.0673C261.2529,-137.2881 270.0017,-142.5235 278.4902,-146.7468 283.8269,-149.402 289.5471,-151.8969 295.2977,-154.193"/>
<polygon fill="#000000" stroke="#000000" points="294.351,-157.5775 304.942,-157.8626 296.8403,-151.0351 294.351,-157.5775"/>
<text text-anchor="middle" x="281.9902" y="-153.5468" font-family="Times,serif" font-size="14.00" fill="#000000">1</text>
</g>
<!-- 2mod3 -->
<g id="node6" class="node">
<title>2mod3</title>
<ellipse fill="none" stroke="#000000" cx="343.237" cy="-39.7468" rx="35.9702" ry="35.9702"/>
<ellipse fill="none" stroke="#000000" cx="343.237" cy="-39.7468" rx="39.9952" ry="39.9952"/>
<text text-anchor="middle" x="343.237" y="-36.0468" font-family="Times,serif" font-size="14.00" fill="#000000">2mod3</text>
</g>
<!-- 1mod3&#45;&gt;2mod3 -->
<g id="edge6" class="edge">
<title>1mod3&#45;&gt;2mod3</title>
<path fill="none" stroke="#000000" d="M255.5175,-89.1588C269.2239,-81.438 285.1206,-72.4835 299.5863,-64.335"/>
<polygon fill="#000000" stroke="#000000" points="301.3809,-67.3413 308.376,-59.3839 297.9454,-61.2423 301.3809,-67.3413"/>
<text text-anchor="middle" x="281.9902" y="-78.5468" font-family="Times,serif" font-size="14.00" fill="#000000">0</text>
</g>
<!-- 2mod3&#45;&gt;1mod3 -->
<g id="edge8" class="edge">
<title>2mod3&#45;&gt;1mod3</title>
<path fill="none" stroke="#000000" d="M303.7224,-46.1834C295.1014,-48.4864 286.2447,-51.5866 278.4902,-55.7468 270.3005,-60.1405 262.3706,-65.9621 255.1446,-72.1369"/>
<polygon fill="#000000" stroke="#000000" points="252.6933,-69.6343 247.601,-78.9251 257.3757,-74.8377 252.6933,-69.6343"/>
<text text-anchor="middle" x="281.9902" y="-59.5468" font-family="Times,serif" font-size="14.00" fill="#000000">0</text>
</g>
<!-- 2mod3&#45;&gt;2mod3 -->
<g id="edge9" class="edge">
<title>2mod3&#45;&gt;2mod3</title>
<path fill="none" stroke="#000000" d="M332.031,-78.0644C332.4704,-89.0346 336.2058,-97.4937 343.237,-97.4937 347.8513,-97.4937 351.0461,-93.8507 352.8215,-88.2457"/>
<polygon fill="#000000" stroke="#000000" points="356.3266,-88.4904 354.4431,-78.0644 349.4137,-87.3894 356.3266,-88.4904"/>
<text text-anchor="middle" x="343.237" y="-101.2937" font-family="Times,serif" font-size="14.00" fill="#000000">1</text>
</g>
</g>
</svg>
